<?xml version="1.0" encoding="utf-8"?>
<svg width="18px" height="18px" viewBox="0 0 18 18" version="1.1" xmlns:xlink="http://www.w3.org/1999/xlink" xmlns="http://www.w3.org/2000/svg">
  <defs>
    <path d="M0 0L16 0L16 16L0 16L0 0Z" id="path_1" />
    <clipPath id="mask_1">
      <use xlink:href="#path_1" />
    </clipPath>
  </defs>
  <g id="eye" transform="translate(0.75 0.75)">
    <path d="M0 0L16 0L16 16L0 16L0 0Z" id="eye-(BackgroundMask)" fill="none" fill-rule="evenodd" stroke="none" />
    <g clip-path="url(#mask_1)">
      <path d="M7.33333 0C12 0 14.6667 5.33333 14.6667 5.33333C14.6667 5.33333 12 10.6667 7.33333 10.6667C2.66667 10.6667 0 5.33333 0 5.33333C0 5.33333 2.66667 0 7.33333 0Z" transform="translate(0.66667175 2.666665)" id="Vector" fill="none" stroke="#2b6cb0" stroke-width="1.5" stroke-linecap="round" stroke-linejoin="round" />
      <path d="M2 4C0.895431 4 0 3.10457 0 2C0 0.895431 0.895431 0 2 0C3.10457 0 4 0.895431 4 2C4 3.10457 3.10457 4 2 4Z" transform="translate(6 6)" id="Vector" fill="none" fill-rule="evenodd" stroke="#2b6cb0" stroke-width="1.5" stroke-linecap="round" stroke-linejoin="round" />
    </g>
  </g>
</svg>
